<mxfile host="Electron" modified="2024-04-14T19:03:18.955Z" agent="Mozilla/5.0 (Windows NT 10.0; Win64; x64) AppleWebKit/537.36 (KHTML, like Gecko) draw.io/24.0.4 Chrome/120.0.6099.109 Electron/28.1.0 Safari/537.36" etag="w3i2aiGUtUYlMMQkaDp8" version="24.0.4" type="device">
  <diagram name="Page-1" id="QVlZ5KN_tAOvCVk7n1Mp">
    <mxGraphModel dx="864" dy="508" grid="1" gridSize="10" guides="1" tooltips="1" connect="1" arrows="1" fold="1" page="1" pageScale="1" pageWidth="850" pageHeight="1100" background="none" math="0" shadow="0">
      <root>
        <mxCell id="0" />
        <mxCell id="1" parent="0" />
        <mxCell id="BUlVKniaVG21_NRe9QX1-1" value="clinet&lt;div&gt;&lt;br&gt;&lt;/div&gt;" style="shape=umlActor;verticalLabelPosition=bottom;verticalAlign=top;html=1;outlineConnect=0;" vertex="1" parent="1">
          <mxGeometry x="305" y="40" width="30" height="60" as="geometry" />
        </mxCell>
        <mxCell id="BUlVKniaVG21_NRe9QX1-4" style="edgeStyle=orthogonalEdgeStyle;rounded=0;orthogonalLoop=1;jettySize=auto;html=1;exitX=0.75;exitY=1;exitDx=0;exitDy=0;" edge="1" parent="1" source="BUlVKniaVG21_NRe9QX1-2">
          <mxGeometry relative="1" as="geometry">
            <mxPoint x="380.28571428571433" y="320" as="targetPoint" />
          </mxGeometry>
        </mxCell>
        <mxCell id="BUlVKniaVG21_NRe9QX1-2" value="Api layer&lt;div&gt;&lt;br&gt;&lt;/div&gt;&lt;div&gt;Get Post&amp;nbsp; &amp;nbsp; Delete&amp;nbsp; &amp;nbsp; &amp;nbsp; &amp;nbsp; &amp;nbsp; &amp;nbsp; &amp;nbsp; &amp;nbsp; &amp;nbsp; &amp;nbsp; &amp;nbsp;&lt;/div&gt;" style="rounded=0;whiteSpace=wrap;html=1;" vertex="1" parent="1">
          <mxGeometry x="275" y="120" width="120" height="60" as="geometry" />
        </mxCell>
        <mxCell id="BUlVKniaVG21_NRe9QX1-7" style="edgeStyle=orthogonalEdgeStyle;rounded=0;orthogonalLoop=1;jettySize=auto;html=1;exitX=0.25;exitY=1;exitDx=0;exitDy=0;" edge="1" parent="1" source="BUlVKniaVG21_NRe9QX1-5">
          <mxGeometry relative="1" as="geometry">
            <mxPoint x="335.1428571428571" y="420" as="targetPoint" />
          </mxGeometry>
        </mxCell>
        <mxCell id="BUlVKniaVG21_NRe9QX1-5" value="service layer&lt;div&gt;&lt;br&gt;&lt;/div&gt;&lt;div&gt;Business logic&lt;/div&gt;" style="rounded=0;whiteSpace=wrap;html=1;" vertex="1" parent="1">
          <mxGeometry x="275" y="200" width="120" height="60" as="geometry" />
        </mxCell>
        <mxCell id="BUlVKniaVG21_NRe9QX1-8" value="Data Access layer" style="rounded=0;whiteSpace=wrap;html=1;" vertex="1" parent="1">
          <mxGeometry x="290" y="310" width="120" height="60" as="geometry" />
        </mxCell>
        <mxCell id="BUlVKniaVG21_NRe9QX1-11" value="" style="shape=cylinder3;whiteSpace=wrap;html=1;boundedLbl=1;backgroundOutline=1;size=15;" vertex="1" parent="1">
          <mxGeometry x="335" y="400" width="60" height="80" as="geometry" />
        </mxCell>
        <mxCell id="BUlVKniaVG21_NRe9QX1-12" value="" style="whiteSpace=wrap;html=1;aspect=fixed;" vertex="1" parent="1">
          <mxGeometry x="410" y="30" width="240" height="240" as="geometry" />
        </mxCell>
        <mxCell id="BUlVKniaVG21_NRe9QX1-13" value="add ToDoList" style="ellipse;whiteSpace=wrap;html=1;" vertex="1" parent="1">
          <mxGeometry x="410" y="38" width="70" height="40" as="geometry" />
        </mxCell>
        <mxCell id="BUlVKniaVG21_NRe9QX1-14" value="Update ToDoList" style="ellipse;whiteSpace=wrap;html=1;" vertex="1" parent="1">
          <mxGeometry x="415" y="110" width="60" height="50" as="geometry" />
        </mxCell>
        <mxCell id="BUlVKniaVG21_NRe9QX1-15" value="Delete ToDoList" style="ellipse;whiteSpace=wrap;html=1;" vertex="1" parent="1">
          <mxGeometry x="410" y="190" width="80" height="40" as="geometry" />
        </mxCell>
        <mxCell id="BUlVKniaVG21_NRe9QX1-18" value="Id&lt;div&gt;&lt;br&gt;&lt;/div&gt;&lt;div&gt;TaskName&lt;/div&gt;&lt;div&gt;&lt;br&gt;&lt;/div&gt;&lt;div&gt;Priority&lt;/div&gt;&lt;div&gt;&lt;br&gt;&lt;/div&gt;&lt;div&gt;Status&lt;/div&gt;&lt;div&gt;&lt;br&gt;&lt;/div&gt;&lt;div&gt;DueDate&lt;/div&gt;&lt;div&gt;&lt;br&gt;&lt;/div&gt;&lt;div&gt;&lt;br&gt;&lt;/div&gt;" style="text;html=1;align=center;verticalAlign=middle;resizable=0;points=[];autosize=1;strokeColor=none;fillColor=none;" vertex="1" parent="1">
          <mxGeometry x="150" y="38" width="80" height="170" as="geometry" />
        </mxCell>
        <mxCell id="BUlVKniaVG21_NRe9QX1-20" style="edgeStyle=orthogonalEdgeStyle;rounded=0;orthogonalLoop=1;jettySize=auto;html=1;exitX=0.75;exitY=1;exitDx=0;exitDy=0;entryX=0.75;entryY=0.025;entryDx=0;entryDy=0;entryPerimeter=0;" edge="1" parent="1" source="BUlVKniaVG21_NRe9QX1-8" target="BUlVKniaVG21_NRe9QX1-11">
          <mxGeometry relative="1" as="geometry" />
        </mxCell>
      </root>
    </mxGraphModel>
  </diagram>
</mxfile>
